<svg width="160" height="160" viewBox="0 0 160 160" fill="none" xmlns="http://www.w3.org/2000/svg">
  <rect x="8" y="8" width="144" height="144" rx="72" stroke="#111827" stroke-width="4"/>
  <path d="M64 44H88C99.598 44 108 53.128 108 64C108 74.872 99.598 84 88 84H76V116H64V44ZM88 72C92.4183 72 96 68.4183 96 64C96 59.5817 92.4183 56 88 56H76V72H88Z" fill="#111827"/>
  <path d="M54 116H46V44H54C70.0163 44 82 55.3721 82 72C82 88.6279 70.0163 100 54 100V116ZM54 92C64.4934 92 70 85.178 70 72C70 58.822 64.4934 52 54 52V92Z" fill="#111827"/>
</svg>
